<svg xmlns="http://www.w3.org/2000/svg" viewBox="0 0 40 40">
  
  <rect width="40" height="40" rx="6" fill="#0B1A48"></rect>
  
  <g transform="translate(6, 4) scale(0.78)">
    <path d="M0 40 L0 0 L15.08 0 C18.785 0 22.234 0.894 25.334 2.656 C28.432 4.417 30.934 6.857 32.769 9.908 C34.603 12.956 35.533 16.346 35.533 19.984 C35.533 23.621 34.622 27.06 32.826 30.09 C31.031 33.119 28.541 35.552 25.421 37.315 C23.372 38.473 21.153 39.262 18.825 39.658 C17.62 39.866 16.36 39.97 15.08 39.97 L0 39.97 L0 40 Z M 8.494 32.091 L 15.08 32.091 C 16.428 32.091 17.698 31.924 18.857 31.594 C 19.774 31.338 20.649 30.97 21.461 30.504 C 23.291 29.453 24.732 27.988 25.747 26.151 C 26.756 24.316 27.269 22.241 27.269 19.984 C 27.269 17.727 26.756 15.598 25.747 13.761 C 24.734 11.925 23.282 10.469 21.433 9.436 C 19.58 8.403 17.444 7.879 15.082 7.879 L 8.495 7.879 L 8.495 32.091 Z" fill="#C3EF00" fill-rule="nonzero"></path>
  </g>
</svg>